<?xml version="1.0" encoding="UTF-8"?>
<svg width="1024" height="1024" viewBox="0 0 1024 1024" fill="none" xmlns="http://www.w3.org/2000/svg" role="img" aria-labelledby="title desc">
  <title id="title">Promptly Icon</title>
  <desc id="desc">Rounded chat bubble with gradient background and a minimal image symbol inside: mountains and a sun.</desc>
  <defs>
    <linearGradient id="bgGrad" x1="256" y1="192" x2="800" y2="864" gradientUnits="userSpaceOnUse">
      <stop offset="0" stop-color="#4EA0FF"/>
      <stop offset="1" stop-color="#7B4DFF"/>
    </linearGradient>
    <filter id="softShadow" x="-20%" y="-20%" width="140%" height="140%">
      <feDropShadow dx="0" dy="12" stdDeviation="24" flood-opacity="0.18"/>
    </filter>
  </defs>

  <!-- Outer rounded square chat bubble -->
  <g filter="url(#softShadow)">
    <rect x="128" y="128" width="704" height="704" rx="160" fill="url(#bgGrad)"/>
    <!-- Tail -->
    <path d="M744 768c36 0 64 28 64 64v40c0 20-16 36-36 36-10 0-20-4-27-12l-77-77c-12-12-4-32 13-32h63z" fill="url(#bgGrad)"/>
  </g>

  <!-- Inner container (like photo frame) -->
  <rect x="256" y="256" width="480" height="480" rx="100" fill="white" opacity="0.96"/>

  <!-- Mountains -->
  <path d="M300 672 L460 500 L560 600 L650 520 L780 672 Z" fill="url(#bgGrad)"/>

  <!-- Sun -->
  <circle cx="680" cy="370" r="44" fill="url(#bgGrad)"/>
</svg>
